<svg width="16" height="14" viewBox="0 0 16 14" fill="none" xmlns="http://www.w3.org/2000/svg">
<path d="M11.8334 6.23869C11.2549 6.15457 10.7122 5.91789 10.2656 5.55501C9.81893 5.19213 9.48595 4.7173 9.30371 4.18341C9.12148 3.64951 9.09714 3.07751 9.2334 2.53111C9.36967 1.98471 9.66119 1.48536 10.0755 1.08869C11.3104 -0.0973588 13.6865 -0.455671 14.9215 0.73038C15.0029 0.808614 15.0782 0.892549 15.1467 0.981492L11.8334 6.23869Z" fill="url(#paint0_linear)"/>
<path d="M14.5485 5.38398C14.1978 5.7215 13.7692 5.9748 13.2975 6.1233C12.8257 6.27181 12.3241 6.31132 11.8335 6.23865C11.6379 5.68424 11.5709 5.09548 11.637 4.51358C11.7032 3.93168 11.901 3.3707 12.2166 2.86991C12.5322 2.36912 12.9579 1.94063 13.464 1.61442C13.97 1.28822 14.5442 1.07218 15.1463 0.981445C16.1055 2.21547 15.7014 4.27723 14.5485 5.38398Z" fill="url(#paint1_linear)"/>
<path d="M3.84854 6.23869C4.42695 6.15457 4.96971 5.91789 5.41634 5.55501C5.86297 5.19213 6.19594 4.7173 6.37818 4.18341C6.56042 3.64951 6.58476 3.07751 6.44849 2.53111C6.31223 1.98471 6.02071 1.48536 5.6064 1.08869C4.37146 -0.0973588 1.99537 -0.455671 0.760941 0.73038C0.679179 0.808483 0.603701 0.892428 0.535156 0.981492L3.84854 6.23869Z" fill="url(#paint2_linear)"/>
<path d="M1.13403 5.38398C1.48459 5.72149 1.91312 5.97479 2.3848 6.1233C2.85647 6.2718 3.35797 6.31132 3.84855 6.23865C3.9958 5.82267 4.07071 5.38623 4.07025 4.94686C4.07001 3.98971 3.71365 3.06415 3.06544 2.33713C2.41723 1.6101 1.51985 1.12947 0.535165 0.981934C-0.42098 2.21547 -0.0193582 4.27723 1.13403 5.38398Z" fill="url(#paint3_linear)"/>
<path d="M2.37463 2.65766C2.27797 2.56526 2.16181 2.49381 2.03398 2.44814C1.90615 2.40248 1.76961 2.38365 1.63357 2.39293C1.49752 2.4022 1.36513 2.43937 1.24529 2.50192C1.12546 2.56448 1.02098 2.65097 0.938882 2.75556C0.661541 3.10557 0.413246 3.47595 0.196289 3.8633C0.37891 4.43438 0.700155 4.95564 1.13358 5.38416C1.38223 5.62345 1.67077 5.82116 1.98728 5.96911L2.62284 3.52652C2.66299 3.37343 2.66124 3.21298 2.61774 3.06073C2.57425 2.90849 2.4905 2.76964 2.37463 2.65766Z" fill="#FD748D"/>
<path d="M0.79592 8.65076C0.756604 8.36449 0.737024 8.07603 0.737308 7.78728C0.753178 5.98776 1.50863 4.26712 2.83918 3.00002C4.16973 1.73292 5.96762 1.02197 7.84138 1.02197C9.71514 1.02197 11.513 1.73292 12.8436 3.00002C14.1741 4.26712 14.9296 5.98776 14.9454 7.78728C14.946 8.0762 14.9264 8.36483 14.8868 8.65125L0.79592 8.65076Z" fill="url(#paint4_linear)"/>
<path d="M14.8873 8.6516C14.4368 11.871 11.4537 13.1232 7.84161 13.1232C4.22956 13.1232 1.24594 11.871 0.795898 8.65112C2.63072 6.96627 4.46554 7.56003 6.40229 4.04495C6.54054 3.79389 6.74808 3.58422 7.00218 3.43895C7.19209 3.32991 7.40305 3.25899 7.62231 3.2305C7.84157 3.202 8.06457 3.21652 8.27783 3.27317C8.49108 3.32982 8.69015 3.42742 8.863 3.56007C9.03586 3.69273 9.1789 3.85768 9.28347 4.04495C11.2167 7.56003 13.055 6.96626 14.8899 8.6516H14.8873Z" fill="url(#paint5_linear)"/>
<path d="M3.28251 7.89799C3.71037 7.89799 4.05722 7.63018 4.05722 7.29982C4.05722 6.96947 3.71037 6.70166 3.28251 6.70166C2.85466 6.70166 2.50781 6.96947 2.50781 7.29982C2.50781 7.63018 2.85466 7.89799 3.28251 7.89799Z" fill="#FFAECF"/>
<path d="M12.3997 7.89799C12.8276 7.89799 13.1744 7.63018 13.1744 7.29982C13.1744 6.96947 12.8276 6.70166 12.3997 6.70166C11.9718 6.70166 11.625 6.96947 11.625 7.29982C11.625 7.63018 11.9718 7.89799 12.3997 7.89799Z" fill="#FFAECF"/>
<path d="M4.61037 7.29981C5.45876 7.29981 6.14652 6.63928 6.14652 5.82447C6.14652 5.00966 5.45876 4.34912 4.61037 4.34912C3.76198 4.34912 3.07422 5.00966 3.07422 5.82447C3.07422 6.63928 3.76198 7.29981 4.61037 7.29981Z" fill="white"/>
<path d="M11.0713 7.29981C11.9197 7.29981 12.6075 6.63928 12.6075 5.82447C12.6075 5.00966 11.9197 4.34912 11.0713 4.34912C10.2229 4.34912 9.53516 5.00966 9.53516 5.82447C9.53516 6.63928 10.2229 7.29981 11.0713 7.29981Z" fill="white"/>
<path d="M4.61022 6.70408C5.11604 6.70408 5.5261 6.31025 5.5261 5.82445C5.5261 5.33865 5.11604 4.94482 4.61022 4.94482C4.10439 4.94482 3.69434 5.33865 3.69434 5.82445C3.69434 6.31025 4.10439 6.70408 4.61022 6.70408Z" fill="#383842"/>
<path d="M11.0712 6.70408C11.577 6.70408 11.987 6.31025 11.987 5.82445C11.987 5.33865 11.577 4.94482 11.0712 4.94482C10.5653 4.94482 10.1553 5.33865 10.1553 5.82445C10.1553 6.31025 10.5653 6.70408 11.0712 6.70408Z" fill="#383842"/>
<path d="M8.35077 7.77046C8.16882 7.76906 7.99141 7.71573 7.8411 7.61725C7.69093 7.716 7.51343 7.76936 7.33143 7.77046C7.19873 7.76815 7.06798 7.73942 6.94744 7.68609C6.8269 7.63275 6.7192 7.55597 6.63114 7.46061C6.58647 7.41182 6.56336 7.34823 6.56673 7.28334C6.57009 7.21846 6.59966 7.15738 6.64915 7.1131C6.69865 7.06881 6.76417 7.0448 6.8318 7.04617C6.89943 7.04753 6.96384 7.07416 7.01136 7.12041C7.04912 7.16735 7.09758 7.20535 7.15302 7.2315C7.20847 7.25764 7.26941 7.27124 7.33117 7.27124C7.39294 7.27124 7.45388 7.25764 7.50932 7.2315C7.56476 7.20535 7.61323 7.16735 7.65099 7.12041C7.67531 7.09536 7.70474 7.07538 7.73745 7.06172C7.77015 7.04806 7.80544 7.04102 7.8411 7.04102C7.87676 7.04102 7.91205 7.04806 7.94475 7.06172C7.97746 7.07538 8.00689 7.09536 8.03121 7.12041C8.06897 7.16735 8.11744 7.20535 8.17288 7.2315C8.22832 7.25764 8.28926 7.27124 8.35103 7.27124C8.41279 7.27124 8.47373 7.25764 8.52918 7.2315C8.58462 7.20535 8.63308 7.16735 8.67085 7.12041C8.71836 7.07416 8.78277 7.04753 8.8504 7.04617C8.91803 7.0448 8.98355 7.06881 9.03305 7.1131C9.08254 7.15738 9.11211 7.21846 9.11547 7.28334C9.11884 7.34823 9.09573 7.41182 9.05106 7.46061C8.9631 7.55596 8.85549 7.63274 8.73503 7.68607C8.61458 7.73941 8.4839 7.76814 8.35128 7.77046H8.35077Z" fill="#383842"/>
<defs>
<linearGradient id="paint0_linear" x1="982.868" y1="1488.3" x2="1675.18" y2="1488.3" gradientUnits="userSpaceOnUse">
<stop stop-color="#4F4C5F"/>
<stop offset="1" stop-color="#77718A"/>
</linearGradient>
<linearGradient id="paint1_linear" x1="11.613" y1="3.62681" x2="15.683" y2="3.62681" gradientUnits="userSpaceOnUse">
<stop stop-color="#FD869C"/>
<stop offset="1" stop-color="#FDB0BF"/>
</linearGradient>
<linearGradient id="paint2_linear" x1="-20.0457" y1="1488.3" x2="672.264" y2="1488.3" gradientUnits="userSpaceOnUse">
<stop stop-color="#77718A"/>
<stop offset="1" stop-color="#4F4C5F"/>
</linearGradient>
<linearGradient id="paint3_linear" x1="-0.000225107" y1="3.62681" x2="4.07032" y2="3.62681" gradientUnits="userSpaceOnUse">
<stop stop-color="#FDB0BF"/>
<stop offset="1" stop-color="#FD869C"/>
</linearGradient>
<linearGradient id="paint4_linear" x1="7.84175" y1="8.651" x2="7.84175" y2="0.963976" gradientUnits="userSpaceOnUse">
<stop stop-color="#FDB58A"/>
<stop offset="1" stop-color="#3C2313"/>
</linearGradient>
<linearGradient id="paint5_linear" x1="7.84172" y1="13.1235" x2="7.84172" y2="3.21562" gradientUnits="userSpaceOnUse">
<stop stop-color="#FFF5E3"/>
<stop offset="1" stop-color="#F0A83E"/>
</linearGradient>
</defs>
</svg>
