<svg width="19" height="15" viewBox="0 0 19 15" fill="none" xmlns="http://www.w3.org/2000/svg">
<path d="M13.6747 0.407018C14.5661 -0.164715 15.7368 -0.124087 16.615 0.465757C17.4223 0.995981 18.018 1.77413 18.304 2.67241C18.4121 3.0138 18.4055 3.37921 18.2853 3.71681C18.165 4.05442 17.9371 4.34708 17.6338 4.5533C17.3306 4.75951 16.9675 4.86881 16.596 4.86569C16.2245 4.86257 15.8634 4.7472 15.564 4.53593L12.6309 2.46437C12.6309 1.39238 13.11 0.769246 13.6747 0.408486V0.407018Z" fill="url(#paint0_linear)"/>
<path d="M4.70486 0.407018C3.81344 -0.164715 2.64272 -0.124087 1.76558 0.465757C0.958212 0.995981 0.362587 1.77413 0.0765221 2.67241C-0.0315673 3.0138 -0.025001 3.37921 0.0952903 3.71681C0.215582 4.05442 0.443491 4.34708 0.746697 4.5533C1.0499 4.75951 1.41301 4.86881 1.78453 4.86569C2.15605 4.86257 2.51711 4.7472 2.81652 4.53593L5.74969 2.46437C5.74969 1.39238 5.2706 0.769246 4.70588 0.408486L4.70486 0.407018Z" fill="url(#paint1_linear)"/>
<path d="M4.16079 2.24308C3.99585 2.08492 3.77231 1.99609 3.53924 1.99609C3.30617 1.99609 3.08263 2.08492 2.9177 2.24308C2.16139 2.96363 1.54505 3.80804 1.09766 4.73658C1.37824 4.8474 1.68379 4.88706 1.98494 4.85174C2.28609 4.81642 2.57272 4.70732 2.81729 4.5349L4.29534 3.27053C4.39505 3.10928 4.43595 2.92071 4.41158 2.73464C4.38722 2.54856 4.29897 2.37559 4.16079 2.24308Z" fill="#5C586F"/>
<path d="M16.5003 9.70751C16.0681 12.7424 14.0386 14.3763 9.18955 14.3763C3.64584 14.3763 1.78809 12.2421 1.78809 8.31636C1.78851 7.19938 2.06285 6.0982 2.58888 5.102C3.11491 4.1058 3.87785 3.2426 4.8159 2.58231C5.75396 1.92202 6.84075 1.4832 7.98825 1.30139C9.13576 1.11958 10.3117 1.1999 11.4209 1.53584L16.5003 9.70751Z" fill="url(#paint2_linear)"/>
<path d="M16.5924 8.31811C16.5946 8.78327 16.5641 9.24805 16.5011 9.70926C15.7945 9.89726 15.0522 9.92591 14.3321 9.79298C13.612 9.66005 12.9336 9.36913 12.3499 8.94293C11.7662 8.51673 11.2928 7.96676 10.9669 7.33593C10.6409 6.7051 10.4711 6.01048 10.4707 5.30624C10.4707 3.34825 10.6786 2.19499 11.4192 1.53711C12.9199 1.99263 14.2305 2.89557 15.1607 4.1149C16.0909 5.33423 16.5924 6.80652 16.5924 8.31811Z" fill="url(#paint3_linear)"/>
<path d="M4.19044 8.27181C4.65968 8.27181 5.04007 7.97815 5.04007 7.61589C5.04007 7.25363 4.65968 6.95996 4.19044 6.95996C3.72121 6.95996 3.34082 7.25363 3.34082 7.61589C3.34082 7.97815 3.72121 8.27181 4.19044 8.27181Z" fill="#FFAECF"/>
<path d="M14.1895 8.27181C14.6587 8.27181 15.0391 7.97815 15.0391 7.61589C15.0391 7.25363 14.6587 6.95996 14.1895 6.95996C13.7202 6.95996 13.3398 7.25363 13.3398 7.61589C13.3398 7.97815 13.7202 8.27181 14.1895 8.27181Z" fill="#FFAECF"/>
<path d="M7.31124 6.25763C7.46034 5.37543 6.83657 4.54418 5.91801 4.40097C4.99944 4.25777 4.13392 4.85685 3.98482 5.73906C3.83572 6.62126 4.45949 7.45251 5.37805 7.59572C6.29662 7.73892 7.16213 7.13984 7.31124 6.25763Z" fill="white"/>
<path d="M12.7328 7.61595C13.6634 7.61595 14.4178 6.89142 14.4178 5.99767C14.4178 5.10392 13.6634 4.37939 12.7328 4.37939C11.8022 4.37939 11.0479 5.10392 11.0479 5.99767C11.0479 6.89142 11.8022 7.61595 12.7328 7.61595Z" fill="white"/>
<path d="M6.6604 6.11368C6.74912 5.58643 6.37601 5.08994 5.82703 5.00473C5.27805 4.91951 4.76109 5.27785 4.67237 5.8051C4.58364 6.33235 4.95675 6.82884 5.50573 6.91405C6.05471 6.99927 6.57168 6.64093 6.6604 6.11368Z" fill="#383842"/>
<path d="M12.7326 6.96182C13.2871 6.96182 13.7366 6.53009 13.7366 5.99751C13.7366 5.46494 13.2871 5.0332 12.7326 5.0332C12.178 5.0332 11.7285 5.46494 11.7285 5.99751C11.7285 6.53009 12.178 6.96182 12.7326 6.96182Z" fill="#383842"/>
<path d="M9.74959 8.10766C9.54864 8.1064 9.35294 8.04591 9.18895 7.93438C9.02496 8.04591 8.82926 8.1064 8.62831 8.10766C8.48679 8.10469 8.34745 8.07363 8.21903 8.01643C8.09062 7.95923 7.97592 7.87713 7.88215 7.77529C7.85889 7.75128 7.84079 7.72311 7.82886 7.69238C7.81694 7.66165 7.81144 7.62896 7.81267 7.59619C7.8139 7.56342 7.82184 7.5312 7.83603 7.50137C7.85023 7.47155 7.8704 7.4447 7.8954 7.42236C7.9204 7.40002 7.94973 7.38263 7.98173 7.37118C8.01373 7.35973 8.04776 7.35445 8.08188 7.35563C8.11601 7.35681 8.14955 7.36444 8.18061 7.37807C8.21166 7.3917 8.23962 7.41108 8.26288 7.43509C8.30657 7.48907 8.36253 7.53276 8.42648 7.56281C8.49043 7.59286 8.56068 7.60848 8.63188 7.60848C8.70307 7.60848 8.77333 7.59286 8.83728 7.56281C8.90123 7.53276 8.95719 7.48907 9.00088 7.43509C9.0252 7.41004 9.05463 7.39006 9.08734 7.3764C9.12004 7.36274 9.15532 7.3557 9.19099 7.3557C9.22665 7.3557 9.26193 7.36274 9.29464 7.3764C9.32735 7.39006 9.35677 7.41004 9.3811 7.43509C9.42479 7.48907 9.48075 7.53276 9.5447 7.56281C9.60865 7.59286 9.6789 7.60848 9.7501 7.60848C9.82129 7.60848 9.89155 7.59286 9.9555 7.56281C10.0195 7.53276 10.0754 7.48907 10.1191 7.43509C10.1424 7.41108 10.1703 7.3917 10.2014 7.37807C10.2324 7.36444 10.266 7.35681 10.3001 7.35563C10.3342 7.35445 10.3682 7.35973 10.4002 7.37118C10.4322 7.38263 10.4616 7.40002 10.4866 7.42236C10.5116 7.4447 10.5317 7.47155 10.5459 7.50137C10.5601 7.5312 10.5681 7.56342 10.5693 7.59619C10.5705 7.62896 10.565 7.66165 10.5531 7.69238C10.5412 7.72311 10.5231 7.75128 10.4998 7.77529C10.4057 7.87755 10.2904 7.9599 10.1613 8.01711C10.0323 8.07433 9.89222 8.10516 9.7501 8.10766H9.74959Z" fill="#383842"/>
<path d="M10.1126 6.30304C10.1126 6.58891 9.69929 6.81995 9.18962 6.81995C8.67995 6.81995 8.2666 6.58891 8.2666 6.30304C8.2666 6.01717 8.67995 5.98389 9.18962 5.98389C9.69929 5.98389 10.1126 6.01766 10.1126 6.30304Z" fill="#383842"/>
<defs>
<linearGradient id="paint0_linear" x1="12.632" y1="2.43144" x2="18.3823" y2="2.43144" gradientUnits="userSpaceOnUse">
<stop stop-color="#4F4C5F"/>
<stop offset="1" stop-color="#77718A"/>
</linearGradient>
<linearGradient id="paint1_linear" x1="-0.000795279" y1="2.43144" x2="5.74944" y2="2.43144" gradientUnits="userSpaceOnUse">
<stop stop-color="#77718A"/>
<stop offset="1" stop-color="#4F4C5F"/>
</linearGradient>
<linearGradient id="paint2_linear" x1="9.1453" y1="14.3759" x2="9.1453" y2="1.20574" gradientUnits="userSpaceOnUse">
<stop stop-color="#F0A83E"/>
<stop offset="1" stop-color="#FFF5E3"/>
</linearGradient>
<linearGradient id="paint3_linear" x1="10.4718" y1="5.70311" x2="16.5938" y2="5.70311" gradientUnits="userSpaceOnUse">
<stop stop-color="#EFC4AB"/>
<stop offset="1" stop-color="#3C2313"/>
</linearGradient>
</defs>
</svg>
